HIERARCHY
ROOT Hips
{
	OFFSET 0.00000 0.00000 0.00000
	CHANNELS 6 Xposition Yposition Zposition Zrotation Yrotation Xrotation 
	JOINT LHipJoint
	{
		OFFSET 0 0 0
		CHANNELS 3 Zrotation Yrotation Xrotation
		JOINT LeftUpLeg
		{
			OFFSET 1.09156 -1.61406 0.76500
			CHANNELS 3 Zrotation Yrotation Xrotation
			JOINT LeftLeg
			{
				OFFSET 2.33750 -6.42225 0.00000
				CHANNELS 3 Zrotation Yrotation Xrotation
				JOINT LeftFoot
				{
					OFFSET 2.49247 -6.84800 0.00000
					CHANNELS 3 Zrotation Yrotation Xrotation
					JOINT LeftToeBase
					{
						OFFSET 0.15312 -0.42069 1.45461
						CHANNELS 3 Zrotation Yrotation Xrotation
						End Site
						{
							OFFSET 0.00000 -0.00000 0.77046
						}
					}
				}
			}
		}
	}
	JOINT RHipJoint
	{
		OFFSET 0 0 0
		CHANNELS 3 Zrotation Yrotation Xrotation
		JOINT RightUpLeg
		{
			OFFSET -0.99883 -1.61406 0.76500
			CHANNELS 3 Zrotation Yrotation Xrotation
			JOINT RightLeg
			{
				OFFSET -2.36877 -6.50815 0.00000
				CHANNELS 3 Zrotation Yrotation Xrotation
				JOINT RightFoot
				{
					OFFSET -2.53452 -6.96353 0.00000
					CHANNELS 3 Zrotation Yrotation Xrotation
					JOINT RightToeBase
					{
						OFFSET -0.13156 -0.36145 1.63237
						CHANNELS 3 Zrotation Yrotation Xrotation
						End Site
						{
							OFFSET -0.00000 -0.00000 0.84979
						}
					}
				}
			}
		}
	}
	JOINT LowerBack
	{
		OFFSET 0 0 0
		CHANNELS 3 Zrotation Yrotation Xrotation
		JOINT Spine
		{
			OFFSET -0.02431 1.98242 -0.13616
			CHANNELS 3 Zrotation Yrotation Xrotation
			JOINT Spine1
			{
				OFFSET 0.03629 1.98974 -0.02954
				CHANNELS 3 Zrotation Yrotation Xrotation
				JOINT Neck
				{
					OFFSET 0 0 0
					CHANNELS 3 Zrotation Yrotation Xrotation
					JOINT Neck1
					{
						OFFSET 0.09349 1.40783 0.22333
						CHANNELS 3 Zrotation Yrotation Xrotation
						JOINT Head
						{
							OFFSET -0.04273 1.44500 -0.06495
							CHANNELS 3 Zrotation Yrotation Xrotation
							End Site
							{
								OFFSET -0.02251 1.44600 -0.04544
							}
						}
					}
				}
				JOINT LeftShoulder
				{
					OFFSET 0 0 0
					CHANNELS 3 Zrotation Yrotation Xrotation
					JOINT LeftArm
					{
						OFFSET 3.49137 0.85126 -0.29740
						CHANNELS 3 Zrotation Yrotation Xrotation
						JOINT LeftForeArm
						{
							OFFSET 5.06035 -0.00000 0.00000
							CHANNELS 3 Zrotation Yrotation Xrotation
							JOINT LeftHand
							{
								OFFSET 3.14780 -0.00000 0.00000
								CHANNELS 3 Zrotation Yrotation Xrotation
								JOINT LeftFingerBase
								{
									OFFSET 0 0 0
									CHANNELS 3 Zrotation Yrotation Xrotation
									JOINT LeftHandIndex1
									{
										OFFSET 0.60675 -0.00000 0.00000
										CHANNELS 3 Zrotation Yrotation Xrotation
										End Site
										{
											OFFSET 0.48918 -0.00000 0.00000
										}
									}
								}
								JOINT LThumb
								{
									OFFSET 0 0 0
									CHANNELS 3 Zrotation Yrotation Xrotation
									End Site
									{
										OFFSET 0.49664 -0.00000 0.49664
									}
								}
							}
						}
					}
				}
				JOINT RightShoulder
				{
					OFFSET 0 0 0
					CHANNELS 3 Zrotation Yrotation Xrotation
					JOINT RightArm
					{
						OFFSET -3.28101 0.69707 0.00747
						CHANNELS 3 Zrotation Yrotation Xrotation
						JOINT RightForeArm
						{
							OFFSET -5.12273 -0.00000 -0.00000
							CHANNELS 3 Zrotation Yrotation Xrotation
							JOINT RightHand
							{
								OFFSET -3.42200 -0.00000 0.00000
								CHANNELS 3 Zrotation Yrotation Xrotation
								JOINT RightFingerBase
								{
									OFFSET 0 0 0
									CHANNELS 3 Zrotation Yrotation Xrotation
									JOINT RightHandIndex1
									{
										OFFSET -0.70460 -0.00000 0.00000
										CHANNELS 3 Zrotation Yrotation Xrotation
										End Site
										{
											OFFSET -0.56807 -0.00000 0.00000
										}
									}
								}
								JOINT RThumb
								{
									OFFSET 0 0 0
									CHANNELS 3 Zrotation Yrotation Xrotation
									End Site
									{
										OFFSET -0.57674 -0.00000 0.57674
									}
								}
							}
						}
					}
				}
			}
		}
	}
}
MOTION
Frames: 7
Frame Time: .0083333
-32.0827 15.8207 0.0148 0 0 0 0 0 0 -21 0 0 0 0 0 0 0 0 0 0 0 0 0 0 21 0 0 0 0 0 0 0 0 0 0 0 0 0 0 0 0 0 0 0 0 0 0 -16 0 0 21 0 0 11 0 0 0 -8 0 0 0 0 0 0 0 0 0 0 0 0 0 0 0 0 0 0 0 0 8 0 0 0 0 0 0 0 0 0 0 0 0 0 0 0 0 0
-32.0827 15.8207 0.0148 96.6873 85.0221 102.8980 0.0000 0.0000 0.0000 -26.3569 -5.5649 -20.1883 3.0508 10.7768 31.5307 0.9050 -8.2878 -17.0867 4.0933 12.2836 36.7427 0.0000 0.0000 0.0000 13.1579 5.0025 -18.3526 -10.8170 -17.8444 62.1859 -0.4775 7.0378 -12.5187 -0.0558 1.5239 -4.1916 -5.5214 -1.4519 -4.4070 -2.6710 -1.4697 1.0711 0.2226 -0.7967 3.6568 2.4010 0.9897 -13.4558 0.2623 0.8844 6.3449 -0.2400 0.5185 4.0844 -0.0000 -0.0000 0.0000 -85.4002 1.0249 -3.7763 9.9115 -16.6011 -1.4496 -0.0000 -0.0000 10.4267 16.9698 46.0424 12.3892 -7.1250 0.0000 -0.0000 -39.9135 74.1413 -28.5645 -0.0000 -0.0000 0.0000 94.7963 -1.1133 21.3816 -12.8826 21.1150 -2.4108 0.0000 0.0000 2.1070 -27.2753 30.7483 -14.7676 7.1250 -0.0000 -0.0000 2.3067 3.7908 2.4561
-31.8980 15.8033 -0.0047 98.6235 84.4605 105.2300 0.0000 0.0000 0.0000 -27.0755 -5.6301 -19.7866 3.0529 10.7803 31.5423 0.9734 -8.6085 -17.7296 4.0752 12.2598 36.6573 0.0000 0.0000 0.0000 12.4865 5.2462 -20.5432 -10.7687 -17.8200 62.0282 -0.6549 7.2947 -14.5408 -0.1364 2.3800 -6.5570 -5.9900 -1.5109 -4.7722 -2.7441 -1.4858 1.0007 0.3976 -0.8132 3.8028 2.7968 0.9139 -13.2716 -0.4735 0.7901 5.6779 -0.6040 0.4385 4.3032 -0.0000 -0.0000 0.0000 -85.3708 0.2726 -0.0325 10.7078 -17.8390 -1.6853 -0.0000 -0.0000 8.1018 17.9895 43.5744 12.6163 -7.1250 0.0000 -0.0000 -32.7993 72.7093 -22.2160 -0.0000 -0.0000 0.0000 94.5776 -1.7174 20.3799 -12.2320 20.1516 -2.1816 0.0000 0.0000 2.9226 -26.8387 30.7748 -14.5149 7.1250 -0.0000 -0.0000 2.5592 3.7100 2.7220
-31.7147 15.7866 -0.0207 101.6450 84.0996 108.4120 0.0000 0.0000 0.0000 -27.5222 -5.4741 -19.3110 3.0963 10.8494 31.7736 1.0353 -9.1951 -18.3277 4.0418 12.2159 36.4999 0.0000 0.0000 0.0000 12.1406 5.3042 -22.3136 -10.5397 -17.7024 61.2775 -0.7908 6.9917 -15.8956 -0.2503 3.2190 -8.8890 -6.3738 -1.7088 -4.9406 -2.6074 -1.7142 1.0389 0.7264 -0.9411 3.9671 2.4415 0.9357 -13.5602 -0.5114 0.8738 6.3859 -0.4856 0.4677 4.1169 -0.0000 -0.0000 0.0000 -85.5365 -0.5252 3.0281 11.6828 -19.3273 -1.9961 -0.0000 -0.0000 5.1303 19.0049 43.4090 13.3162 -7.1250 0.0000 -0.0000 -31.2657 72.9422 -21.2732 -0.0000 -0.0000 0.0000 94.0819 -2.2251 19.5495 -11.6164 19.2269 -1.9741 0.0000 0.0000 3.9633 -26.0710 31.2056 -14.2246 7.1250 -0.0000 -0.0000 3.0689 3.9714 3.2787
-31.5125 15.7798 -0.0180 111.2420 84.7986 117.3720 0.0000 0.0000 0.0000 -26.5218 -5.0458 -17.9914 3.1316 10.9051 31.9606 1.0953 -9.9118 -18.9166 4.0394 12.2127 36.4885 0.0000 0.0000 0.0000 13.5113 5.3937 -22.9134 -10.2540 -17.5502 60.3339 -0.9253 6.3549 -17.1583 -0.2957 3.4969 -9.6653 -5.6568 -1.8973 -4.3006 -2.1869 -2.0844 1.2067 0.7485 -1.1196 3.7886 2.1066 1.0038 -13.7153 -0.2990 0.9985 6.6420 -0.3559 0.5339 4.2199 0.0000 0.0000 0.0000 -85.4911 -1.0441 5.9991 12.8520 -21.0700 -2.3998 -0.0000 -0.0000 2.1637 19.6749 43.7935 13.8988 -7.1250 0.0000 -0.0000 -31.3319 73.4855 -21.6750 0.0000 0.0000 0.0000 93.7711 -2.9206 18.9961 -11.2017 18.5967 -1.8397 0.0000 0.0000 5.0362 -25.0634 30.1888 -13.2333 7.1250 -0.0000 -0.0000 3.4746 2.6762 3.6396
-31.3191 15.7587 -0.0360 115.9760 84.7061 121.9110 0.0000 0.0000 0.0000 -26.5513 -4.8854 -17.0138 3.1563 10.9439 32.0908 1.1827 -10.3217 -19.6706 4.0485 12.2247 36.5314 0.0000 0.0000 0.0000 13.6486 5.4865 -24.1179 -9.9457 -17.3792 59.3067 -1.0348 6.1025 -18.1583 -0.3580 3.8440 -10.6381 -5.5206 -1.8632 -4.1004 -2.1225 -2.0596 1.3439 0.7447 -1.1085 3.8137 2.1798 0.8917 -13.9930 -0.3802 0.8368 6.7267 -0.4039 0.4518 4.2894 0.0000 -0.0000 0.0000 -85.2714 -2.0291 8.8056 13.8645 -22.5406 -2.7759 -0.0000 -0.0000 0.2290 20.1519 43.8716 14.2695 -7.1250 0.0000 -0.0000 -30.9451 73.7204 -21.5452 0.0000 -0.0000 0.0000 93.6621 -3.5573 18.8507 -11.1652 18.5411 -1.8281 0.0000 0.0000 5.2806 -23.8270 26.4089 -11.1125 7.1250 -0.0000 -0.0000 3.6544 -1.5345 3.5625
-31.1233 15.7395 -0.0495 118.7510 84.5873 124.5760 0.0000 0.0000 0.0000 -26.6490 -4.6926 -16.1195 3.1764 10.9752 32.1963 1.2934 -10.5553 -20.5514 3.9914 12.1489 36.2608 0.0000 0.0000 0.0000 13.6844 5.7925 -25.3412 -9.5836 -17.1690 58.0875 -1.1239 5.6586 -18.9566 -0.3014 3.5300 -9.7579 -5.6522 -1.6767 -3.9783 -2.0178 -1.8135 1.4400 0.9470 -0.9934 3.8389 2.4446 0.6405 -14.2918 -0.6994 0.4760 6.9284 -0.5725 0.2624 4.3966 0.0000 0.0000 0.0000 -85.1448 -3.1552 11.4000 14.7945 -23.8591 -3.1424 -0.0000 0.0000 -1.2082 20.1782 43.9276 14.3029 -7.1250 0.0000 -0.0000 -31.0427 73.7739 -21.6508 0.0000 0.0000 0.0000 93.5379 -4.2030 16.3670 -10.3269 17.2493 -1.5705 0.0000 0.0000 8.1076 -24.7115 29.0774 -12.6067 7.1250 -0.0000 -0.0000 3.5058 1.4401 3.5995
